<svg version="1.1" xmlns="http://www.w3.org/2000/svg" viewBox="0 0 855.2017630694372 135.95596725442465" width="2565.6052892083117" height="407.86790176327395">
  <!-- svg-source:excalidraw -->
  
  <defs>
    <style class="style-fonts">
      @font-face {
        font-family: "Virgil";
        src: url("https://excalidraw.com/Virgil.woff2");
      }
      @font-face {
        font-family: "Cascadia";
        src: url("https://excalidraw.com/Cascadia.woff2");
      }
      @font-face {
        font-family: "Assistant";
        src: url("https://excalidraw.com/Assistant-Regular.woff2");
      }
    </style>
    
  </defs>
  <rect x="0" y="0" width="855.2017630694372" height="135.95596725442465" fill="#0f2429"></rect><g stroke-linecap="round" transform="translate(10 12.902958073985246) rotate(0 89.75656338944555 56.5265045902197)"><path d="M28.26 0 C76.62 0.98, 126.09 -0.74, 151.25 0 M28.26 0 C63.66 1.25, 99 1.39, 151.25 0 M151.25 0 C171.64 0.8, 181.04 10.91, 179.51 28.26 M151.25 0 C171.67 -0.53, 181.63 9.41, 179.51 28.26 M179.51 28.26 C180.1 45.43, 180.82 62.61, 179.51 84.79 M179.51 28.26 C180.03 39.49, 179.56 51.88, 179.51 84.79 M179.51 84.79 C180.32 104.86, 170.85 112.47, 151.25 113.05 M179.51 84.79 C178.29 105.65, 171.47 114.94, 151.25 113.05 M151.25 113.05 C123.54 112.74, 93.71 112.11, 28.26 113.05 M151.25 113.05 C105.36 113.49, 58.52 114.45, 28.26 113.05 M28.26 113.05 C10.94 112.6, 1.05 105.61, 0 84.79 M28.26 113.05 C7.43 114.64, 0.38 101.72, 0 84.79 M0 84.79 C-2.03 72.08, -1.38 60.87, 0 28.26 M0 84.79 C-0.59 63.58, -0.59 43.17, 0 28.26 M0 28.26 C-0.27 7.46, 8.46 -1.44, 28.26 0 M0 28.26 C0.8 9.25, 8.67 -1.76, 28.26 0" stroke="#cbe1e1" stroke-width="4" fill="none"></path></g><g transform="translate(50.21723970700805 23.757240576973345) rotate(0 48.915977478027344 17.5)"><text x="48.915977478027344" y="0" font-family="Virgil, Segoe UI Emoji" font-size="28px" fill="#cbe1e1" text-anchor="middle" style="white-space: pre;" direction="ltr" dominant-baseline="text-before-edge">Handler</text></g><g stroke-linecap="round" transform="translate(48.15081222793833 65.9963954537634) rotate(0 51.05530854978133 22.5)"><path d="M11.25 0 C35.35 1.94, 63.14 -1.39, 90.86 0 M11.25 0 C39.71 -0.74, 69.29 -0.06, 90.86 0 M90.86 0 C99.93 1.3, 103.73 2.81, 102.11 11.25 M90.86 0 C96.72 1.21, 101.05 3.68, 102.11 11.25 M102.11 11.25 C101.68 17.99, 103.23 19.97, 102.11 33.75 M102.11 11.25 C101.85 16.66, 102 21.72, 102.11 33.75 M102.11 33.75 C103.63 41.57, 98.08 44.35, 90.86 45 M102.11 33.75 C101.04 40.78, 98.51 43.63, 90.86 45 M90.86 45 C71.79 47.11, 56.61 47.47, 11.25 45 M90.86 45 C69.01 45.42, 46.5 43.88, 11.25 45 M11.25 45 C3.92 44.4, -0.83 41.42, 0 33.75 M11.25 45 C4.64 45.29, 0.34 39.74, 0 33.75 M0 33.75 C-0.81 26.64, -1.61 21.16, 0 11.25 M0 33.75 C-0.39 27.18, -0.45 20.39, 0 11.25 M0 11.25 C0.04 3.94, 2.39 -0.21, 11.25 0 M0 11.25 C1.7 6.02, 5.36 1.48, 11.25 0" stroke="#cbe1e1" stroke-width="4" fill="none"></path></g><g transform="translate(76.40012865125482 70.9963954537634) rotate(0 22.805992126464844 17.5)"><text x="22.805992126464844" y="0" font-family="Virgil, Segoe UI Emoji" font-size="28px" fill="#cbe1e1" text-anchor="middle" style="white-space: pre;" direction="ltr" dominant-baseline="text-before-edge">ctx</text></g><g stroke-linecap="round" transform="translate(227.91903160107813 12.375508020713823) rotate(0 91.71582148309471 56.5265045902197)"><path d="M28.26 0 C63.5 0.5, 100.15 2.02, 155.17 0 M28.26 0 C73.65 -1.13, 120.83 0.44, 155.17 0 M155.17 0 C172.86 1.89, 182.06 10.33, 183.43 28.26 M155.17 0 C176.2 1.66, 181.86 9.49, 183.43 28.26 M183.43 28.26 C182.45 49.78, 185 68.69, 183.43 84.79 M183.43 28.26 C182.85 44.11, 182.58 58.66, 183.43 84.79 M183.43 84.79 C183.31 104.61, 175.11 111.3, 155.17 113.05 M183.43 84.79 C184.17 101.63, 172 113.34, 155.17 113.05 M155.17 113.05 C122.66 111.09, 91.69 111.72, 28.26 113.05 M155.17 113.05 C113.36 113.07, 70.28 111.81, 28.26 113.05 M28.26 113.05 C7.59 114.49, 1.49 103.24, 0 84.79 M28.26 113.05 C10.17 112.15, -0.72 102.45, 0 84.79 M0 84.79 C1.61 70.99, 1.22 57.22, 0 28.26 M0 84.79 C1.28 69.04, -0.43 54.59, 0 28.26 M0 28.26 C1.5 8.87, 8.83 0.07, 28.26 0 M0 28.26 C-0.68 10.83, 11.04 -0.08, 28.26 0" stroke="#cbe1e1" stroke-width="4" fill="none"></path></g><g stroke-linecap="round" transform="translate(265.3053654899677 66.71323462932014) rotate(0 51.05530854978133 22.5)"><path d="M11.25 0 C32.7 0.66, 54.62 1.57, 90.86 0 M90.86 0 C96.58 -0.23, 101.5 4.96, 102.11 11.25 M102.11 11.25 C101.51 18.05, 100.71 26.92, 102.11 33.75 M102.11 33.75 C101.09 40.98, 99.57 43.64, 90.86 45 M90.86 45 C74.4 43.66, 55.72 44.8, 11.25 45 M11.25 45 C4.65 46.4, 1.84 41.34, 0 33.75 M0 33.75 C-1.71 26.47, -1.95 22.12, 0 11.25 M0 11.25 C0.84 4.73, 5.3 -1.27, 11.25 0" stroke="#94b5b8" stroke-width="4.5" fill="none" stroke-dasharray="8 12"></path></g><g transform="translate(293.5546819132842 71.71323462932014) rotate(0 22.805992126464844 17.5)"><text x="22.805992126464844" y="0" font-family="Virgil, Segoe UI Emoji" font-size="28px" fill="#94b5b8" text-anchor="middle" style="white-space: pre;" direction="ltr" dominant-baseline="text-before-edge">ctx</text></g><g transform="translate(261.42842866133924 24.294752706956388) rotate(0 55.81797790527344 17.5)"><text x="55.81797790527344" y="0" font-family="Virgil, Segoe UI Emoji" font-size="28px" fill="#cbe1e1" text-anchor="middle" style="white-space: pre;" direction="ltr" dominant-baseline="text-before-edge">Helper A</text></g><g stroke-linecap="round" transform="translate(441.4807515081711 11.571103188302914) rotate(0 90.96908537947684 56.5265045902197)"><path d="M28.26 0 C56.92 1.89, 84.07 1.11, 153.67 0 M28.26 0 C62.87 0.53, 95.62 0.6, 153.67 0 M153.67 0 C173.85 0.04, 180.95 10.35, 181.94 28.26 M153.67 0 C172.18 2.26, 181.83 7.99, 181.94 28.26 M181.94 28.26 C180.68 49.17, 181.53 68.68, 181.94 84.79 M181.94 28.26 C181.47 46.66, 181.03 64.28, 181.94 84.79 M181.94 84.79 C182.61 104.55, 172.89 112.72, 153.67 113.05 M181.94 84.79 C180.98 102.53, 171.14 114.08, 153.67 113.05 M153.67 113.05 C125.46 111.18, 94.93 113.06, 28.26 113.05 M153.67 113.05 C116.47 114.01, 80.87 113.73, 28.26 113.05 M28.26 113.05 C9.91 111.11, -0.13 102.77, 0 84.79 M28.26 113.05 C10.51 113.04, -1.3 103.07, 0 84.79 M0 84.79 C0.83 63.9, 1.59 44.14, 0 28.26 M0 84.79 C-0.38 70.77, 1.12 54.05, 0 28.26 M0 28.26 C-0.68 8.59, 9.23 1.03, 28.26 0 M0 28.26 C-0.99 11.03, 9.51 1.2, 28.26 0" stroke="#cbe1e1" stroke-width="4" fill="none"></path></g><g stroke-linecap="round" transform="translate(478.0057511785317 66.25262414164354) rotate(0 51.05530854978133 22.5)"><path d="M11.25 0 C35.68 0.38, 58.83 -0.77, 90.86 0 M90.86 0 C98.88 1.55, 103.81 3.15, 102.11 11.25 M102.11 11.25 C101.28 21, 101.97 30.85, 102.11 33.75 M102.11 33.75 C102.02 40.01, 99.42 45.37, 90.86 45 M90.86 45 C69.36 45.86, 49.12 45.4, 11.25 45 M11.25 45 C4.66 44.06, 1.55 39.42, 0 33.75 M0 33.75 C0.3 24.93, -0.91 15.82, 0 11.25 M0 11.25 C-1.2 4.64, 2.28 0.95, 11.25 0" stroke="#94b5b8" stroke-width="4.5" fill="none" stroke-dasharray="8 12"></path></g><g transform="translate(506.25506760184817 71.25262414164354) rotate(0 22.805992126464844 17.5)"><text x="22.805992126464844" y="0" font-family="Virgil, Segoe UI Emoji" font-size="28px" fill="#94b5b8" text-anchor="middle" style="white-space: pre;" direction="ltr" dominant-baseline="text-before-edge">ctx</text></g><g transform="translate(473.2568102250798 23.834142219279784) rotate(0 56.811973571777344 17.5)"><text x="56.811973571777344" y="0" font-family="Virgil, Segoe UI Emoji" font-size="28px" fill="#cbe1e1" text-anchor="middle" style="white-space: pre;" direction="ltr" dominant-baseline="text-before-edge">Helper B</text></g><g stroke-linecap="round" transform="translate(657.7037353805799 10) rotate(0 93.74901384442865 56.5265045902197)"><path d="M28.26 0 C73.49 -1.58, 117.61 0.69, 159.23 0 M28.26 0 C60.4 -1.08, 91.63 0.42, 159.23 0 M159.23 0 C179.02 -1.26, 186.77 9.72, 187.5 28.26 M159.23 0 C178.06 -1.13, 185.61 7.79, 187.5 28.26 M187.5 28.26 C187.39 50.47, 187.56 70.83, 187.5 84.79 M187.5 28.26 C187.06 44.72, 188.7 61.48, 187.5 84.79 M187.5 84.79 C187.78 104.55, 176.18 114.5, 159.23 113.05 M187.5 84.79 C188.56 103.98, 180.17 113.5, 159.23 113.05 M159.23 113.05 C118.25 113.58, 72.93 112.84, 28.26 113.05 M159.23 113.05 C108.14 112.56, 56.13 111.62, 28.26 113.05 M28.26 113.05 C8.7 111.68, -1.47 105.13, 0 84.79 M28.26 113.05 C10.86 113.45, -1.01 105.36, 0 84.79 M0 84.79 C-0.2 70.76, 1.13 58.47, 0 28.26 M0 84.79 C-0.03 72.12, -0.9 61.26, 0 28.26 M0 28.26 C1.04 8.41, 10.11 1.31, 28.26 0 M0 28.26 C1.23 11.51, 8.59 0.53, 28.26 0" stroke="#cbe1e1" stroke-width="4" fill="none"></path></g><g stroke-linecap="round" transform="translate(699.6935412483035 63.21028906589345) rotate(0 51.05530854978133 22.5)"><path d="M11.25 0 C41.33 1.87, 68.92 0.41, 90.86 0 M11.25 0 C38.65 1.38, 65.97 -0.2, 90.86 0 M90.86 0 C97.64 0.3, 102.1 2.77, 102.11 11.25 M90.86 0 C96.47 -1.64, 104.18 5.62, 102.11 11.25 M102.11 11.25 C101.65 17.84, 101.78 28.72, 102.11 33.75 M102.11 11.25 C102.76 17.82, 102.07 23.27, 102.11 33.75 M102.11 33.75 C100.21 42.7, 99.29 45.3, 90.86 45 M102.11 33.75 C104.21 41.7, 98.87 45.18, 90.86 45 M90.86 45 C63.71 44.68, 42.24 46.39, 11.25 45 M90.86 45 C75.69 45.53, 58.63 44.96, 11.25 45 M11.25 45 C2.28 46.5, 1.25 41.59, 0 33.75 M11.25 45 C2.74 46.73, -1.32 42.85, 0 33.75 M0 33.75 C1.5 26.46, -1.87 18.61, 0 11.25 M0 33.75 C-0.53 27.31, 0.42 20.53, 0 11.25 M0 11.25 C0.69 5.06, 4.82 1.82, 11.25 0 M0 11.25 C-0.83 4.28, 5.92 -0.21, 11.25 0" stroke="#cbe1e1" stroke-width="4" fill="none"></path></g><g transform="translate(727.94285767162 68.21028906589345) rotate(0 22.805992126464844 17.5)"><text x="22.805992126464844" y="0" font-family="Virgil, Segoe UI Emoji" font-size="28px" fill="#cbe1e1" text-anchor="middle" style="white-space: pre;" direction="ltr" dominant-baseline="text-before-edge">ctx</text></g><g transform="translate(696.0094168654914 21.346254111685084) rotate(0 55.64997863769531 17.5)"><text x="55.64997863769531" y="0" font-family="Virgil, Segoe UI Emoji" font-size="28px" fill="#cbe1e1" text-anchor="middle" style="white-space: pre;" direction="ltr" dominant-baseline="text-before-edge">Helper C</text></g><g stroke-linecap="round"><g transform="translate(152.17262712936372 91.47368157910114) rotate(0 55.855490879220724 0.32395763037402503)"><path d="M0.35 1.02 C18.98 0.95, 93.11 -0.61, 111.55 -0.52" stroke="#94b5b8" stroke-width="4.5" fill="none" stroke-dasharray="8 12"></path></g><g transform="translate(152.17262712936372 91.47368157910114) rotate(0 55.855490879220724 0.32395763037402503)"><path d="M88.14 8.26 C96.41 5.46, 99.32 2.09, 111.55 -0.52" stroke="#94b5b8" stroke-width="4.5" fill="none"></path></g><g transform="translate(152.17262712936372 91.47368157910114) rotate(0 55.855490879220724 0.32395763037402503)"><path d="M87.97 -8.84 C96.28 -6.85, 99.23 -5.42, 111.55 -0.52" stroke="#94b5b8" stroke-width="4.5" fill="none"></path></g></g><mask></mask><g stroke-linecap="round"><g transform="translate(371.846123274624 90.3579385556286) rotate(0 52.1735643485149 -0.5983346139146306)"><path d="M-0.43 -1.07 C16.7 -1.55, 85.89 -1.97, 103.54 -2.16" stroke="#94b5b8" stroke-width="4.5" fill="none" stroke-dasharray="8 12"></path></g><g transform="translate(371.846123274624 90.3579385556286) rotate(0 52.1735643485149 -0.5983346139146306)"><path d="M80.12 6.59 C86.82 2.15, 95.53 2.2, 103.54 -2.16" stroke="#94b5b8" stroke-width="4.5" fill="none"></path></g><g transform="translate(371.846123274624 90.3579385556286) rotate(0 52.1735643485149 -0.5983346139146306)"><path d="M79.98 -10.51 C86.82 -8.72, 95.59 -2.45, 103.54 -2.16" stroke="#94b5b8" stroke-width="4.5" fill="none"></path></g></g><mask></mask><g stroke-linecap="round"><g transform="translate(581.8305325539432 89.36195926192431) rotate(0 57.17390110842962 -0.11481252709472756)"><path d="M-0.73 0.85 C18.23 0.97, 94.47 1.22, 113.5 0.9" stroke="#94b5b8" stroke-width="4.5" fill="none" stroke-dasharray="8 12"></path></g><g transform="translate(581.8305325539432 89.36195926192431) rotate(0 57.17390110842962 -0.11481252709472756)"><path d="M90.05 9.57 C97.95 5.91, 104.9 3.49, 113.5 0.9" stroke="#94b5b8" stroke-width="4.5" fill="none"></path></g><g transform="translate(581.8305325539432 89.36195926192431) rotate(0 57.17390110842962 -0.11481252709472756)"><path d="M89.97 -7.53 C97.92 -6.46, 104.89 -4.15, 113.5 0.9" stroke="#94b5b8" stroke-width="4.5" fill="none"></path></g></g><mask></mask></svg>